# Blender v2.63 (sub 0) OBJ File: ''
# www.blender.org
v 1.000000 -1.000000 -1.000000
v 1.000000 -1.000000 1.000000
v -1.000000 -1.000000 1.000000
v -1.000000 -1.000000 -1.000000
v 1.000000 0.862721 -0.999999
v 0.999999 1.000000 1.000001
v -1.000000 0.750000 1.000000
v -1.000000 0.952578 -1.000000
v 1.000000 1.000000 0.000001
v 0.000000 0.484791 -1.000000
v -0.000001 0.500000 1.000000
v -1.000000 0.854705 -0.000000
v 0.401215 0.768888 -0.302015
vt 0.000000 0.001029
vt 0.335470 0.000000
vt 0.336499 0.335470
vt 0.001029 0.336499
vt 0.572937 0.555632
vt 0.339155 0.505029
vt 0.342022 0.337036
vt 0.514609 0.336500
vt 0.672484 0.168764
vt 0.671969 0.336500
vt 0.649972 0.000959
vt 0.337528 0.000000
vt 0.336499 0.671969
vt 0.001029 0.672998
vt 0.084382 0.505006
vt 0.041934 0.337400
vt 0.335470 0.336499
vt 0.980634 0.505189
vt 0.996536 0.672974
vt 0.669020 0.671970
vt 0.963585 0.337400
vt 0.670049 0.336500
vt 1.000000 0.335470
vt 0.672484 0.336475
vt 0.750434 0.168499
vt 0.686527 0.000958
vt 0.998971 0.000000
vt 0.664422 0.505670
vt 0.664058 0.337955
vt 0.669020 0.673020
vt 0.515804 0.671889
vt 0.336499 0.673004
vn 0.000000 -1.000000 0.000000
vn 0.158907 0.969790 0.185083
vn 1.000000 0.000000 0.000001
vn 1.000000 -0.000000 0.000000
vn -0.000000 -0.000000 1.000000
vn -1.000000 -0.000000 -0.000000
vn 0.000000 0.000000 -1.000000
vn -0.420733 0.906600 0.032567
vn -0.326115 0.932638 -0.154389
vn 0.203526 0.966862 -0.154130
f 1/1/1 2/2/1 3/3/1
f 1/1/1 3/3/1 4/4/1
f 13/5/2 12/6/2 7/7/2
f 13/5/2 7/7/2 11/8/2
f 9/9/3 6/10/3 2/3/3
f 5/11/3 9/9/3 2/3/3
f 1/12/4 5/11/4 2/3/4
f 2/13/5 6/14/5 11/15/5
f 11/15/5 7/16/5 3/17/5
f 2/13/5 11/15/5 3/17/5
f 12/18/6 8/19/6 4/20/6
f 7/21/6 12/18/6 4/20/6
f 3/22/6 7/21/6 4/20/6
f 4/23/7 8/24/7 10/25/7
f 5/26/7 1/27/7 10/25/7
f 1/27/7 4/23/7 10/25/7
f 9/28/8 13/5/8 11/8/8
f 9/28/8 11/8/8 6/29/8
f 5/30/9 10/31/9 13/5/9
f 5/30/9 13/5/9 9/28/9
f 10/31/10 8/32/10 12/6/10
f 10/31/10 12/6/10 13/5/10

