# Blender v2.63 (sub 0) OBJ File: ''
# www.blender.org
v 1.000000 -1.000000 -1.000000
v 1.000000 -1.000000 1.000000
v -1.000000 -1.000000 1.000000
v -1.000000 -1.000000 -1.000000
v 1.000000 0.782127 -0.999999
v 0.999999 0.809997 1.000001
v -1.000000 0.795227 1.000000
v -1.000000 0.760509 -1.000000
v 1.000000 1.000000 0.000001
v 0.000000 1.000000 -1.000000
v -0.000001 1.000000 1.000000
v -1.000000 1.000000 -0.000000
v -0.000000 1.659087 0.000000
vt 0.000000 0.001021
vt 0.332653 0.000000
vt 0.333674 0.332653
vt 0.001020 0.333674
vt 0.447916 0.219321
vt 0.333674 0.166854
vt 0.335230 0.000000
vt 0.477145 0.025132
vt 0.297946 0.334583
vt 0.333674 0.501021
vt 0.301561 0.667250
vt 0.000510 0.666327
vt 0.001531 0.333674
vt 0.365786 0.667775
vt 0.333674 0.501546
vt 0.367222 0.335115
vt 0.666837 0.666852
vt 0.665816 0.334199
vt 0.701205 0.334199
vt 0.666635 0.167977
vt 0.705959 0.001528
vt 0.999799 0.333283
vt 0.998778 0.000630
vt 0.703585 0.334199
vt 0.706160 0.666863
vt 0.666837 0.500414
vt 1.000000 0.335108
vt 0.998979 0.667761
vt 0.642449 0.192477
vt 0.643106 0.026512
vt 0.666635 0.333901
vt 0.498977 0.334199
vt 0.359177 0.306978
vn 0.000000 -1.000000 0.000000
vn -0.368603 0.853384 0.368602
vn 1.000000 0.000000 0.000001
vn 1.000000 -0.000000 0.000000
vn -0.000000 -0.000000 1.000000
vn -1.000000 0.000000 -0.000000
vn 0.000000 -0.000000 -1.000000
vn 0.363980 0.857343 0.363981
vn 0.372648 0.849863 -0.372648
vn -0.379215 0.844033 -0.379215
f 1/1/1 2/2/1 3/3/1
f 1/1/1 3/3/1 4/4/1
f 13/5/2 12/6/2 7/7/2
f 13/5/2 7/7/2 11/8/2
f 5/9/3 9/10/3 6/11/3
f 5/9/3 6/11/3 2/12/3
f 1/13/4 5/9/4 2/12/4
f 6/14/5 11/15/5 7/16/5
f 2/17/5 6/14/5 7/16/5
f 2/17/5 7/16/5 3/18/5
f 7/19/6 12/20/6 8/21/6
f 3/22/6 7/19/6 8/21/6
f 3/22/6 8/21/6 4/23/6
f 5/24/7 8/25/7 10/26/7
f 5/24/7 1/27/7 8/25/7
f 1/27/7 4/28/7 8/25/7
f 9/29/8 13/5/8 11/8/8
f 9/29/8 11/8/8 6/30/8
f 5/31/9 10/32/9 13/5/9
f 5/31/9 13/5/9 9/29/9
f 10/32/10 8/33/10 12/6/10
f 10/32/10 12/6/10 13/5/10

